# xmcd CD database file
#
# Track frame offsets:
#	150
#	17362
#	33872
#	51075
#
# Disc length: 896 seconds
#
# Revision: 4
# Processed by: cddbd v1.5.2PL0 Copyright (c) Steve Scherf et al.
# Submitted via: CDex 1.70beta3
#
DISCID=21037e04
DTITLE=RAMMに這いよる真尋さんと余市さん - 這いよれ! ニャル子さんW エンディングソングシリーズ3
DYEAR=2013
DGENRE=Anime
TTITLE0=愛クルセイダース†ストライバー
TTITLE1=ユゴスよりの使者
TTITLE2=愛クルセイダース†ストライバー (Instrumental)
TTITLE3=ユゴスよりの使者 (Instrumental)
EXTD=YEAR: 2013
EXTT0=
EXTT1=
EXTT2=
EXTT3=
PLAYORDER=
